# xmcd
#
# Track frame offsets:
#	150
#	17385
#	28817
#	40980
#	56315
#	69042
#	83392
#	95532
#	106777
#	119002
#	128635
#	139412
#	156155
#	165210
#	174445
#	185507
#	195257
#	205597
#	213430
#	223632
#	230375
#	240237
#	252917
#	263325
#	270070
#	299397
#
# Disc length: 4440 seconds
#
# Revision: 1
# Processed by: cddbd v1.5.2PL0 Copyright (c) Steve Scherf et al.
# Submitted via: audiograbber 1.83.01
#
DISCID=4a11561a
DTITLE=chansons et mélodie enfants - CD4
DYEAR=2005
DGENRE=children
TTITLE0=Fais Dodo Colas mon p'tit frère
TTITLE1=Dansons la capucine
TTITLE2=Meunier, tu dors
TTITLE3=Le bon roi Dagobert
TTITLE4=Chanson de printemps (Mendelssohn)
TTITLE5=Une souris verte
TTITLE6=J'ai perdu le do de ma clarinette
TTITLE7=Le fermier dans son pré
TTITLE8=A la volée
TTITLE9=This old man
TTITLE10=Jean de la lune
TTITLE11=Dix filles dans un pré
TTITLE12=Compère qu'as-tu vu ?
TTITLE13=Une poule sur un mur
TTITLE14=Mary Had a Little Lamb
TTITLE15=Arlequin dans sa boutique
TTITLE16=Pauvre soldat
TTITLE17=Ne pleure pas Jeanette
TTITLE18=Petit Papa
TTITLE19=Old Mac Donald
TTITLE20=Un canard dit à sa canne
TTITLE21=Miaou miaou
TTITLE22=Maudit carilloneur
TTITLE23=Three Blind Mice
TTITLE24=Il est né le divin enfant
TTITLE25=DATA
EXTD=Les 100 plus belle chansons d'enfants
EXTT0=
EXTT1=
EXTT2=
EXTT3=
EXTT4=
EXTT5=
EXTT6=
EXTT7=
EXTT8=
EXTT9=
EXTT10=
EXTT11=
EXTT12=
EXTT13=
EXTT14=
EXTT15=
EXTT16=
EXTT17=
EXTT18=
EXTT19=
EXTT20=
EXTT21=
EXTT22=
EXTT23=
EXTT24=
EXTT25=
PLAYORDER=
